<svg width="17" height="16" viewBox="0 0 17 16" fill="none" xmlns="http://www.w3.org/2000/svg">
<path d="M13.8093 6C12.9247 6 12.1729 5.70833 11.5537 5.125C10.9345 4.54167 10.6249 3.83594 10.6249 3.00781C10.6249 2.17969 10.9345 1.47135 11.5537 0.882812C12.1729 0.294271 12.9247 0 13.8093 0C14.6938 0 15.4457 0.294271 16.0649 0.882812C16.6841 1.47135 16.9937 2.17969 16.9937 3.00781C16.9937 3.83594 16.6841 4.54167 16.0649 5.125C15.4457 5.70833 14.6938 6 13.8093 6ZM8.50196 11L5.31757 8L8.50196 5L11.6864 8L8.50196 11ZM3.20294 6C2.32391 6 1.57204 5.70833 0.947327 5.125C0.322612 4.54167 0.0102539 3.83594 0.0102539 3.00781C0.0102539 2.17969 0.319847 1.47135 0.939035 0.882812C1.55822 0.294271 2.31009 0 3.19464 0C4.0792 0 4.83107 0.294271 5.45025 0.882812C6.06944 1.47135 6.37904 2.17969 6.37904 3.00781C6.37904 3.83594 6.06944 4.54167 5.45025 5.125C4.83107 5.70833 4.08196 6 3.20294 6ZM3.20294 10C4.08196 10 4.83107 10.2943 5.45025 10.8828C6.06944 11.4714 6.37904 12.1797 6.37904 13.0078C6.37904 13.8359 6.06944 14.5417 5.45025 15.125C4.83107 15.7083 4.08196 16 3.20294 16C2.32391 16 1.57204 15.7083 0.947327 15.125C0.322612 14.5417 0.0102539 13.8359 0.0102539 13.0078C0.0102539 12.1797 0.322612 11.4714 0.947327 10.8828C1.57204 10.2943 2.32391 10 3.20294 10ZM13.8093 10C14.6938 10 15.4457 10.2943 16.0649 10.8828C16.6841 11.4714 16.9937 12.1797 16.9937 13.0078C16.9937 13.8359 16.6841 14.5417 16.0649 15.125C15.4457 15.7083 14.6938 16 13.8093 16C12.9247 16 12.1729 15.7083 11.5537 15.125C10.9345 14.5417 10.6249 13.8333 10.6249 13C10.6249 12.1667 10.9345 11.4583 11.5537 10.875C12.1729 10.2917 12.9247 10 13.8093 10Z" fill="#8D8D8D"/>
</svg>
