<svg width="28" height="26" viewBox="0 0 28 26" fill="none" xmlns="http://www.w3.org/2000/svg">
<path d="M5.98818 2.223L4.19364 0.377C0 4.6319 0 7.7155 0 11.7H1.27273L2.54545 11.6181C2.54545 7.8117 2.54545 5.7148 5.98818 2.223ZM23.8051 0.377L22.0131 2.223C25.4545 5.7148 25.4545 7.8117 25.4545 11.7L28 11.6181C28 7.7155 28 4.6319 23.8051 0.377ZM14 26C14.7882 26.001 15.5571 25.7512 16.1999 25.2852C16.8427 24.8192 17.3273 24.1603 17.5865 23.4H10.4135C10.6727 24.1603 11.1573 24.8192 11.8001 25.2852C12.4429 25.7512 13.2118 26.001 14 26ZM22.9091 16.3618V10.4C22.9091 6.2179 20.1282 2.6949 16.3609 1.6354C15.988 0.676 15.0767 0 14 0C12.9233 0 12.012 0.676 11.6391 1.6354C7.87055 2.6949 5.09091 6.2179 5.09091 10.4V16.3618L2.91836 18.5809C2.79995 18.7014 2.70603 18.8447 2.64203 19.0024C2.57804 19.1601 2.54521 19.3293 2.54545 19.5V20.8C2.54545 21.1448 2.67954 21.4754 2.91823 21.7192C3.15691 21.963 3.48063 22.1 3.81818 22.1H24.1818C24.5194 22.1 24.8431 21.963 25.0818 21.7192C25.3205 21.4754 25.4545 21.1448 25.4545 20.8V19.5C25.4548 19.3293 25.422 19.1601 25.358 19.0024C25.294 18.8447 25.2001 18.7014 25.0816 18.5809L22.9091 16.3618Z" fill="#4F4F4F"/>
</svg>
