<svg width="17" height="20" viewBox="0 0 17 20" fill="none" xmlns="http://www.w3.org/2000/svg">
<path d="M15.6555 12.6979L11.7405 10.8219L10.085 10.0285C10.808 9.57092 11.3952 8.86472 11.7795 8.0141C12.1 7.30496 12.2658 6.53516 12.2657 5.75635C12.2657 5.29752 12.1932 4.86179 12.0922 4.44138C11.5997 2.40413 10.016 0.90332 8.11475 0.90332C6.2495 0.90332 4.68975 2.35064 4.16675 4.32988C4.046 4.78394 3.963 5.25608 3.963 5.75635C3.963 6.62505 4.165 7.43497 4.50825 8.13942C4.905 8.95663 5.49325 9.63044 6.20925 10.0637L4.62375 10.8053L0.58175 12.6964C0.23075 12.8616 0 13.2594 0 13.7037V18.1652C0 18.7632 0.41475 19.2479 0.92675 19.2479H6.93V15.8318C6.93083 15.7966 6.9411 15.7623 6.95975 15.7324L6.95725 15.7309L7.9405 14.0201L7.943 14.0216C7.978 13.9614 8.04025 13.9187 8.11475 13.9187C8.18925 13.9187 8.2515 13.9611 8.2865 14.0216L8.2875 14.0209L8.29649 14.0367C8.29774 14.0392 8.2995 14.0412 8.3005 14.0437L9.27074 15.7316L9.2695 15.7324C9.28815 15.7623 9.29842 15.7968 9.29924 15.8321V19.2481H15.3025C15.8145 19.2481 16.2295 18.7634 16.2295 18.1654V13.7037C16.2302 13.2609 16.0032 12.8669 15.6555 12.6979ZM9.27024 11.5539L9.27275 11.5554L8.28924 13.2662L8.28675 13.2647C8.26968 13.2955 8.2448 13.3212 8.21464 13.3393C8.18447 13.3573 8.1501 13.367 8.115 13.3674C8.07989 13.367 8.04552 13.3573 8.01535 13.3393C7.98519 13.3212 7.96031 13.2955 7.94325 13.2647L7.942 13.2654L7.93199 13.2481C7.93124 13.2464 7.92975 13.2449 7.929 13.2431L6.95875 11.5547L6.95975 11.5539C6.94109 11.524 6.93082 11.4895 6.93 11.4542C6.93 11.3425 7.02025 11.2518 7.1315 11.2518H9.09799C9.20924 11.2518 9.29949 11.3425 9.29949 11.4542C9.29909 11.4895 9.28897 11.524 9.27024 11.5539Z" fill="#8D8D8D"/>
</svg>
