<svg width="16" height="16" viewBox="0 0 16 16" fill="none" xmlns="http://www.w3.org/2000/svg">
<path d="M4.0249 8.0001C4.02771 8.83131 4.13181 9.65908 4.3349 10.4651H7.5749V5.7251H4.2899C4.11706 6.47119 4.02818 7.23426 4.0249 8.0001Z" fill="#8D8D8D"/>
<path d="M8.4248 5.7251V10.4651H11.6648C11.8763 9.66012 11.9888 8.83233 11.9998 8.0001C11.9982 7.23445 11.911 6.47138 11.7398 5.7251H8.4248Z" fill="#8D8D8D"/>
<path d="M8 0C6.41775 0 4.87103 0.469192 3.55544 1.34824C2.23985 2.22729 1.21447 3.47672 0.608967 4.93853C0.00346625 6.40034 -0.15496 8.00887 0.153721 9.56072C0.462403 11.1126 1.22433 12.538 2.34315 13.6569C3.46197 14.7757 4.88743 15.5376 6.43928 15.8463C7.99113 16.155 9.59966 15.9965 11.0615 15.391C12.5233 14.7855 13.7727 13.7602 14.6518 12.4446C15.5308 11.129 16 9.58225 16 8C16 5.87827 15.1571 3.84344 13.6569 2.34315C12.1566 0.842855 10.1217 0 8 0ZM14.11 11.355H12.3C11.9578 12.4264 11.4518 13.4384 10.8 14.355C10.319 14.5646 9.8158 14.7189 9.3 14.815C10.2237 13.8113 10.9347 12.6309 11.39 11.345H8.43V14.92H7.585V11.355H4.61C5.06471 12.6427 5.77569 13.8248 6.7 14.83C6.19483 14.735 5.7018 14.5841 5.23 14.38C4.57591 13.4557 4.06984 12.4351 3.73 11.355H1.89C1.73027 11.0636 1.59159 10.7612 1.475 10.45H3.475C3.2876 9.64664 3.19033 8.8249 3.185 8C3.18528 7.23536 3.26572 6.47286 3.425 5.725H1.38C1.48515 5.41474 1.61214 5.11232 1.76 4.82H3.665C4.02245 3.62952 4.57678 2.50733 5.305 1.5C5.76679 1.30866 6.24792 1.16784 6.74 1.08C5.74534 2.14752 4.99466 3.41855 4.54 4.805H7.585V1H8.43V4.82H11.475C11.0212 3.43577 10.2722 2.16654 9.28 1.1C9.77129 1.1815 10.2524 1.3156 10.715 1.5C11.439 2.50005 11.9915 3.61359 12.35 4.795H14.235C14.3829 5.08733 14.5098 5.38975 14.615 5.7H12.585C12.7477 6.45585 12.8298 7.22683 12.83 8C12.8274 8.82973 12.7318 9.65657 12.545 10.465H14.545C14.4213 10.7716 14.2759 11.069 14.11 11.355Z" fill="#8D8D8D"/>
</svg>
