<svg width="24" height="23" viewBox="0 0 24 23" fill="none" xmlns="http://www.w3.org/2000/svg">
<path d="M5.45312 7.6117V23H0.296875V7.6117H5.45312ZM5.78125 2.72872C5.79167 3.50532 5.52865 4.15426 4.99219 4.67553C4.45573 5.19681 3.75 5.45745 2.875 5.45745H2.84375C1.98958 5.45745 1.30208 5.19681 0.78125 4.67553C0.260417 4.15426 0 3.50532 0 2.72872C0 1.94149 0.268229 1.28989 0.804688 0.773936C1.34115 0.257979 2.04167 0 2.90625 0C3.77083 0 4.46354 0.257979 4.98438 0.773936C5.50521 1.28989 5.77083 1.94149 5.78125 2.72872ZM24 14.3617V23H18.8594V14.9681C18.8594 13.8511 18.6484 12.9761 18.2266 12.3431C17.8047 11.7101 17.1458 11.3936 16.25 11.3936C15.5938 11.3936 15.0443 11.5771 14.6016 11.9441C14.1589 12.3112 13.8281 12.766 13.6094 13.3085C13.4948 13.6277 13.4375 14.0585 13.4375 14.6011L13.4062 23H8.3125C8.33333 18.7553 8.32812 15.7394 8.32812 13.1011C8.32812 10.4628 8.32292 8.8883 8.3125 8.37766L8.29688 7.6117H13.4375V9.90957H13.4062C13.6146 9.56915 13.8281 9.27128 14.0469 9.01596C14.2656 8.76064 14.5599 8.48404 14.9297 8.18617C15.2995 7.8883 15.7526 7.65691 16.2891 7.49202C16.8255 7.32713 17.4219 7.24468 18.0781 7.24468C19.8594 7.24468 21.2917 7.8484 22.375 9.05585C23.4583 10.2633 24 12.0319 24 14.3617Z" fill="white"/>
</svg>
