<svg width="17" height="20" viewBox="0 0 17 20" fill="none" xmlns="http://www.w3.org/2000/svg">
<path d="M8.5 0C5.57069 0 3.1875 2.243 3.1875 5V8H2.125C1.56141 8 1.02091 8.21071 0.622398 8.58579C0.223883 8.96086 0 9.46957 0 10V18C0 18.5304 0.223883 19.0391 0.622398 19.4142C1.02091 19.7893 1.56141 20 2.125 20H14.875C15.4386 20 15.9791 19.7893 16.3776 19.4142C16.7761 19.0391 17 18.5304 17 18V10C17 9.46957 16.7761 8.96086 16.3776 8.58579C15.9791 8.21071 15.4386 8 14.875 8H13.8125V5C13.8125 2.243 11.4293 0 8.5 0ZM5.3125 5C5.3125 3.346 6.74262 2 8.5 2C10.2574 2 11.6875 3.346 11.6875 5V8H5.3125V5ZM9.5625 15.723V18H7.4375V15.723C7.06603 15.5228 6.76776 15.2213 6.58201 14.8584C6.39625 14.4954 6.33174 14.0879 6.39698 13.6898C6.46221 13.2916 6.65414 12.9214 6.94744 12.6279C7.24074 12.3345 7.62165 12.1316 8.03994 12.046C8.35063 11.9813 8.67278 11.9832 8.98264 12.0513C9.29249 12.1194 9.58214 12.2521 9.83023 12.4397C10.0783 12.6272 10.2785 12.8647 10.4161 13.1348C10.5536 13.4049 10.625 13.7005 10.625 14C10.6244 14.3497 10.5259 14.6932 10.3393 14.9956C10.1528 15.2981 9.88485 15.549 9.5625 15.723Z" fill="#8D8D8D"/>
</svg>
