<svg width="19" height="20" viewBox="0 0 19 20" fill="none" xmlns="http://www.w3.org/2000/svg">
<path d="M9.5 0.240234C4.25329 0.240234 0 4.51294 0 9.7836C0 15.0543 4.25329 19.327 9.5 19.327C14.7467 19.327 19 15.0543 19 9.7836C19 4.51294 14.7467 0.240234 9.5 0.240234ZM6.08594 4.03102C6.28167 4.01942 6.45859 4.13695 6.59271 4.34555L7.89154 6.81992C8.02829 7.11313 7.95058 7.42707 7.74658 7.63657L7.15168 8.23419C7.11496 8.28473 7.0908 8.34166 7.09021 8.40427C7.31836 9.2914 8.0104 10.1097 8.621 10.6725C9.23156 11.2352 9.88781 11.9971 10.7397 12.1776C10.845 12.2071 10.974 12.2177 11.0493 12.1473L11.7405 11.4402C11.9791 11.2585 12.3242 11.1705 12.5789 11.319H12.5905L14.9342 12.7088C15.2782 12.9255 15.3138 13.3442 15.0675 13.5989L13.4533 15.2077C13.2149 15.4532 12.8982 15.5358 12.5905 15.5362C11.2297 15.4952 9.94387 14.8243 8.88772 14.1347C7.15413 12.8678 5.56394 11.2964 4.56562 9.398C4.18274 8.60192 3.73296 7.58619 3.77589 6.69764C3.77972 6.36337 3.86975 6.03589 4.10408 5.82043L5.71833 4.19881C5.84408 4.09132 5.96849 4.03798 6.08594 4.03102Z" fill="#8D8D8D"/>
</svg>
