<svg width="45" height="45" viewBox="0 0 45 45" fill="none" xmlns="http://www.w3.org/2000/svg">
<path d="M27.4966 0.0280762C17.9768 0.0280762 10.2256 7.77932 10.2256 17.2991C10.2256 21.4355 11.6763 25.2265 14.1116 28.2023L0.348267 41.9622L2.83357 44.4492L16.5951 30.6859C19.6686 33.2056 23.5223 34.5787 27.4966 34.5701C37.0164 34.5701 44.7676 26.8189 44.7676 17.2991C44.7676 7.77932 37.0164 0.0280762 27.4966 0.0280762ZM27.4966 3.48228C35.1477 3.48228 41.3134 9.64804 41.3134 17.2991C41.3134 24.9502 35.1477 31.1159 27.4966 31.1159C19.8455 31.1159 13.6798 24.9502 13.6798 17.2991C13.6798 9.64804 19.8455 3.48228 27.4966 3.48228Z" fill="#6A6A6A"/>
</svg>
