<svg width="22" height="22" viewBox="0 0 22 22" fill="none" xmlns="http://www.w3.org/2000/svg">
<path d="M3.35364 8.27238C3.66046 8.27256 3.95465 8.39452 4.17161 8.61147C4.38856 8.82843 4.51052 9.12262 4.5107 9.42944C4.5107 10.0674 3.99164 10.5855 3.35364 10.5855C2.71564 10.5855 2.19727 10.0671 2.19727 9.4291C2.19727 9.12234 2.31908 8.82814 2.53592 8.61117C2.75276 8.3942 3.04689 8.27222 3.35364 8.27203V8.27238Z" fill="#8D8D8D"/>
<path d="M11.0212 1.83325C11.2211 1.83325 11.4189 1.87261 11.6035 1.94908C11.7881 2.02555 11.9559 2.13763 12.0972 2.27892C12.2385 2.42022 12.3506 2.58796 12.427 2.77257C12.5035 2.95718 12.5428 3.15504 12.5428 3.35486C12.5428 3.55468 12.5035 3.75255 12.427 3.93716C12.3506 4.12177 12.2385 4.28951 12.0972 4.4308C11.9559 4.5721 11.7881 4.68418 11.6035 4.76064C11.4189 4.83711 11.2211 4.87647 11.0212 4.87647C10.8215 4.87652 10.6238 4.83722 10.4393 4.76083C10.2548 4.68445 10.0871 4.57246 9.94593 4.43128C9.80471 4.29009 9.69268 4.12246 9.61626 3.93798C9.53983 3.75349 9.50049 3.55576 9.50049 3.35606C9.50031 2.95249 9.6604 2.56536 9.94558 2.2798C10.2308 1.99424 10.6177 1.83362 11.0212 1.83325Z" fill="#8D8D8D"/>
<path d="M2.64014 6.75127L2.87664 7.12734C3.1385 6.96284 3.4549 6.90889 3.75647 6.97732C4.05805 7.04576 4.32018 7.23099 4.48539 7.4924L4.86042 7.25521C4.63241 6.89444 4.27064 6.63879 3.85444 6.54433C3.43823 6.44986 3.00156 6.52428 2.64014 6.75127Z" fill="#8D8D8D"/>
<path d="M3.70703 4.96303L3.85278 5.38206C4.14494 5.28052 4.46545 5.29907 4.74395 5.43364C5.02244 5.56821 5.23614 5.80781 5.33812 6.09981L5.75681 5.95372C5.61577 5.55098 5.32081 5.22058 4.93658 5.03494C4.55236 4.8493 4.1102 4.82357 3.70703 4.96337V4.96303Z" fill="#8D8D8D"/>
<path d="M5.14844 3.4605L5.19656 3.90187C5.50404 3.86897 5.81202 3.95923 6.0531 4.1529C6.29418 4.34656 6.44871 4.62784 6.48287 4.93518L6.92356 4.88671C6.8766 4.46255 6.66345 4.07429 6.3308 3.80697C5.99815 3.53965 5.57311 3.41506 5.14878 3.4605H5.14844Z" fill="#8D8D8D"/>
<path d="M6.83887 2.76133C7.14595 2.79833 7.42581 2.95563 7.61707 3.1987C7.80834 3.44177 7.89538 3.75079 7.85912 4.05795L8.2998 4.1102C8.34965 3.68635 8.22944 3.26003 7.96552 2.92465C7.7016 2.58927 7.31549 2.37219 6.8918 2.32098L6.83887 2.76167V2.76133Z" fill="#8D8D8D"/>
<path d="M13.9077 2.19278C14.0884 2.44361 14.1624 2.75583 14.1135 3.06108C14.0645 3.36633 13.8966 3.63974 13.6465 3.82147L13.9064 4.18138C14.2516 3.93065 14.4834 3.55333 14.5511 3.13203C14.6187 2.71074 14.5167 2.27981 14.2673 1.93359L13.9077 2.19313V2.19278Z" fill="#8D8D8D"/>
<path d="M15.7111 3.0563C15.8308 3.34126 15.8327 3.66203 15.7163 3.94836C15.6 4.23469 15.3749 4.46323 15.0903 4.58392L15.2629 4.99298C15.6556 4.82649 15.9664 4.51113 16.1271 4.11598C16.2878 3.72083 16.2853 3.2781 16.1202 2.88477L15.7111 3.05664V3.0563Z" fill="#8D8D8D"/>
<path d="M17.2741 4.30236C17.3269 4.60718 17.2565 4.92047 17.0785 5.17347C16.9005 5.42648 16.6294 5.59855 16.3247 5.65192L16.4003 6.08883C16.8208 6.01521 17.1949 5.7779 17.4406 5.42891C17.6864 5.07993 17.7838 4.64774 17.7114 4.22708L17.2741 4.30271V4.30236Z" fill="#8D8D8D"/>
<path d="M17.2877 6.9702L17.2637 7.41295C17.6898 7.43565 18.1076 7.28847 18.4255 7.00367C18.7433 6.71887 18.9353 6.31968 18.9594 5.89358L18.516 5.86917C18.4987 6.17801 18.3597 6.46741 18.1294 6.67388C17.8991 6.88036 17.5963 6.98705 17.2874 6.97055L17.2877 6.9702Z" fill="#8D8D8D"/>
<path d="M18.469 10.7312C17.8255 10.7312 17.3037 10.2135 17.3037 9.57549C17.3037 8.93714 17.8252 8.4198 18.469 8.4198C19.1118 8.4198 19.6343 8.93714 19.6343 9.57549C19.6343 10.2135 19.1118 10.7312 18.469 10.7312Z" fill="#8D8D8D"/>
<path d="M19.6986 12.706L20.1344 12.7067L21.0261 15.8204C21.0949 16.0593 21.3616 16.1906 21.6222 16.116C21.8834 16.0414 22.0484 15.8131 21.9604 15.5144L21.0437 12.3203C20.6772 11.0433 19.6082 11.0831 19.6082 11.0831H17.3301C17.3301 11.0831 16.2621 11.0433 15.8946 12.3203L14.9772 15.5144C14.8898 15.8131 15.0548 16.0414 15.3161 16.116C15.5767 16.1906 15.8434 16.0593 15.9111 15.8204L16.8035 12.7067L17.2387 12.706L16.0476 16.8599H20.891L19.6993 12.706H19.6986Z" fill="#8D8D8D"/>
<path d="M3.32939 12.264C3.74671 12.264 3.99214 12.1113 4.00108 10.9577H2.67627C2.68589 12.1113 2.90933 12.264 3.32939 12.264Z" fill="#8D8D8D"/>
<path d="M4.90485 12.7906H5.32766V16.0208C5.32766 16.3006 5.55385 16.5282 5.83228 16.5282C5.89854 16.528 5.96411 16.5147 6.0252 16.4891C6.08629 16.4634 6.1417 16.4259 6.18823 16.3787C6.23476 16.3316 6.27149 16.2757 6.2963 16.2142C6.32111 16.1528 6.33351 16.087 6.33278 16.0208V12.4379C6.33278 11.6205 5.66247 10.9577 4.84503 10.9577H4.32185C4.32185 12.0835 3.99322 12.5603 3.50853 12.5603V13.862C3.65153 13.9229 3.7526 14.0655 3.7526 14.2305C3.7526 14.4519 3.57522 14.6341 3.35385 14.6341C3.13178 14.6341 2.9551 14.4581 2.9551 14.236C2.9551 14.07 3.05478 13.9287 3.19778 13.8675V12.5647C2.68903 12.5647 2.37554 12.0446 2.37554 10.9577H1.87778C1.05966 10.9577 0.330566 11.6205 0.330566 12.4379V16.0208C0.330566 16.3006 0.549879 16.5278 0.829691 16.5278C1.10882 16.5278 1.33569 16.3006 1.33569 16.0208V12.7906H1.75438V16.8599H4.90485V12.7909V12.7906Z" fill="#8D8D8D"/>
<path d="M13.3443 7.38272H12.9593V19.3878C12.9593 19.8619 12.5749 20.2458 12.1006 20.2458C11.6262 20.2458 11.2422 19.8619 11.2422 19.3878V11.9525H10.8022V19.3878C10.7959 19.6115 10.7026 19.8238 10.5422 19.9797C10.3818 20.1357 10.1669 20.2229 9.94319 20.2229C9.71948 20.2229 9.50458 20.1357 9.34417 19.9797C9.18376 19.8238 9.09048 19.6115 9.08416 19.3878V7.38272H8.69778L8.69709 11.8099C8.69709 11.9836 8.62806 12.1503 8.50519 12.2732C8.38232 12.396 8.21567 12.4651 8.04191 12.4651C7.86814 12.4651 7.70149 12.396 7.57862 12.2732C7.45575 12.1503 7.38672 11.9836 7.38672 11.8099V6.91488C7.38672 5.83688 8.15809 5.22638 9.21444 5.22638H12.8283C13.8843 5.22638 14.656 5.83722 14.656 6.91488V11.8099C14.656 11.9836 14.587 12.1503 14.4641 12.2732C14.3412 12.396 14.1746 12.4651 14.0008 12.4651C13.827 12.4651 13.6604 12.396 13.5375 12.2732C13.4147 12.1503 13.3456 11.9836 13.3456 11.8099L13.3436 7.38272H13.3443Z" fill="#8D8D8D"/>
</svg>
