<svg width="28" height="23" viewBox="0 0 28 23" fill="none" xmlns="http://www.w3.org/2000/svg">
<path d="M27.9466 2.71022C26.8986 3.17091 25.7887 3.47516 24.6523 3.61322C25.8502 2.89423 26.747 1.76552 27.1766 0.436092C26.0436 1.09322 24.8103 1.55996 23.5261 1.81772C22.6625 0.894994 21.5186 0.283076 20.2717 0.0769033C19.0248 -0.12927 17.7447 0.0818291 16.6301 0.677447C15.5154 1.27307 14.6285 2.2199 14.1069 3.37106C13.5853 4.52222 13.4582 5.81333 13.7454 7.04409C8.974 6.82097 4.74425 4.52847 1.91538 1.06522C1.40042 1.94099 1.13109 2.9394 1.13575 3.95534C1.13505 4.89978 1.36758 5.82979 1.81269 6.66276C2.25779 7.49574 2.90171 8.20591 3.68725 8.73022C2.77692 8.7027 1.88642 8.45757 1.09025 8.01534V8.08447C1.08997 9.41011 1.54806 10.6951 2.38687 11.7216C3.22569 12.7481 4.39363 13.453 5.69275 13.7168C5.20065 13.8483 4.69361 13.9157 4.18425 13.9172C3.81588 13.9172 3.46413 13.8813 3.11325 13.8166C3.48296 14.9573 4.19913 15.9545 5.16207 16.6691C6.12501 17.3838 7.28681 17.7805 8.48575 17.804C6.45436 19.3948 3.94781 20.2579 1.36762 20.2548C0.910618 20.2566 0.453916 20.2309 0 20.1778C2.63208 21.8644 5.69307 22.7597 8.81912 22.7573C19.3778 22.7573 25.1475 14.0117 25.1475 6.43772C25.1475 6.19622 25.1475 5.95034 25.1291 5.70359C26.2578 4.8947 27.2304 3.88792 28 2.73209L27.9466 2.71022Z" fill="white"/>
</svg>
