<svg width="54" height="39" viewBox="0 0 54 39" fill="none" xmlns="http://www.w3.org/2000/svg">
<path d="M36.25 0C36.8909 0 37.5056 0.254613 37.9588 0.707826C38.4121 1.16104 38.6667 1.77573 38.6667 2.41667V12.5667L51.2647 3.74583C51.4459 3.61885 51.6584 3.54404 51.8792 3.52954C52.0999 3.51505 52.3204 3.56144 52.5166 3.66365C52.7128 3.76586 52.8772 3.91998 52.9918 4.10919C53.1064 4.2984 53.1669 4.51544 53.1667 4.73667V33.93C53.1669 34.1512 53.1064 34.3683 52.9918 34.5575C52.8772 34.7467 52.7128 34.9008 52.5166 35.003C52.3204 35.1052 52.0999 35.1516 51.8792 35.1371C51.6584 35.1226 51.4459 35.0478 51.2647 34.9208L38.6667 26.1V36.25C38.6667 36.8909 38.4121 37.5056 37.9588 37.9588C37.5056 38.4121 36.8909 38.6667 36.25 38.6667H2.41667C1.77573 38.6667 1.16104 38.4121 0.707825 37.9588C0.254612 37.5056 0 36.8909 0 36.25V2.41667C0 1.77573 0.254612 1.16104 0.707825 0.707826C1.16104 0.254613 1.77573 0 2.41667 0H36.25ZM16.9167 9.66667V16.9167H9.66667V21.75H16.9142L16.9167 29H21.75L21.7476 21.75H29V16.9167H21.75V9.66667H16.9167Z" fill="#2E2E2E"/>
</svg>
