<svg width="29" height="20" viewBox="0 0 29 20" fill="none" xmlns="http://www.w3.org/2000/svg">
<path d="M19.7727 0C20.1223 0 20.4576 0.131696 20.7048 0.366117C20.952 0.600537 21.0909 0.918479 21.0909 1.25V6.5L27.9626 1.9375C28.0614 1.87182 28.1773 1.83312 28.2977 1.82563C28.4181 1.81813 28.5384 1.84213 28.6454 1.89499C28.7524 1.94786 28.8421 2.02757 28.9046 2.12544C28.9671 2.22331 29.0001 2.33557 29 2.45V17.55C29.0001 17.6644 28.9671 17.7767 28.9046 17.8746C28.8421 17.9724 28.7524 18.0521 28.6454 18.105C28.5384 18.1579 28.4181 18.1819 28.2977 18.1744C28.1773 18.1669 28.0614 18.1282 27.9626 18.0625L21.0909 13.5V18.75C21.0909 19.0815 20.952 19.3995 20.7048 19.6339C20.4576 19.8683 20.1223 20 19.7727 20H1.31818C0.968578 20 0.633294 19.8683 0.386086 19.6339C0.138879 19.3995 0 19.0815 0 18.75V1.25C0 0.918479 0.138879 0.600537 0.386086 0.366117C0.633294 0.131696 0.968578 0 1.31818 0H19.7727ZM9.22727 5V8.75H5.27273V11.25H9.22596L9.22727 15H11.8636L11.8623 11.25H15.8182V8.75H11.8636V5H9.22727Z" fill="#028383"/>
</svg>
